<svg id="Layer_1" data-name="Layer 1" xmlns="http://www.w3.org/2000/svg" viewBox="0 0 156.01 164.69"><defs><style>.cls-1{fill:#fff;}</style></defs><title>blueprint1600</title><path class="cls-1" d="M118.12,57.87c.15-.13.31-.25.44-.39,2.61-2.6,5.22-5.2,7.81-7.83.35-.35.51-.31.83,0Q142,64.46,156.77,79.22c.35.35.31.51,0,.83q-19.12,19.09-38.22,38.21c-.15.15-.29.32-.43.48l-4.33,4.32c-.11.09-.22.18-.32.28L96.78,140c-.1.1-.19.22-.28.32l-4.32,4.33c-.16.14-.33.28-.48.43Q81.25,155.53,70.82,166c-.34.34-.49.34-.83,0Q59.57,155.53,49.12,145.1c-.15-.15-.32-.29-.48-.43l-4.32-4.33-3.94-4c-.12-.12-.31-.2-.31-.42l4.24-4.24q2.27-2.16,4.44-4.44L53,123c.81-.8,1.63-1.58,2.43-2.39l7.48-7.5,3.2-3.22,4.24-4.24q2.27-2.16,4.44-4.44L79,97c1.52-1.44,3-2.94,4.43-4.45l4.24-4.22q2.27-2.16,4.44-4.44l4.24-4.24q2.27-2.16,4.44-4.44L105,71c.12-.11.25-.21.36-.32l6.58-6.56c.62-.62,1.23-1.26,1.85-1.89ZM70.37,160.18a.85.85,0,0,0,.41-.31L150.64,80c.32-.32.31-.48,0-.8q-11.74-11.72-23.46-23.46c-.3-.3-.46-.31-.76,0q-2.7,2.74-5.45,5.44c-.37.36-.32.54,0,.88q5.67,5.64,11.32,11.29c.29.29.34.45,0,.76q-1.19,1.11-2.3,2.3c-.32.34-.49.35-.84,0-3.77-3.8-7.56-7.57-11.33-11.36-.3-.3-.46-.3-.76,0q-3.49,3.53-7,7c-.3.3-.31.46,0,.76,1.64,1.61,3.25,3.24,4.88,4.85.29.28.35.45,0,.76-.8.75-1.58,1.54-2.34,2.34-.29.3-.45.32-.76,0-1.59-1.63-3.23-3.22-4.81-4.85-.36-.37-.55-.32-.88,0q-3.43,3.47-6.9,6.9c-.37.36-.33.54,0,.88,3.77,3.74,7.52,7.51,11.28,11.26.32.32.4.49,0,.84-.79.72-1.53,1.48-2.26,2.26-.32.34-.49.36-.84,0-3.77-3.8-7.56-7.57-11.33-11.36-.3-.3-.46-.31-.76,0q-3.49,3.53-7,7c-.3.29-.32.46,0,.76,1.63,1.59,3.22,3.22,4.84,4.82.32.32.4.49,0,.84-.8.73-1.56,1.51-2.3,2.3-.28.3-.45.33-.76,0-1.61-1.64-3.25-3.24-4.85-4.88-.32-.33-.49-.3-.8,0q-3.45,3.49-6.94,6.94c-.36.36-.33.54,0,.88,3.76,3.73,7.49,7.48,11.25,11.22.35.35.44.54,0,.92-.78.7-1.51,1.46-2.23,2.22-.31.33-.49.37-.84,0-3.77-3.8-7.56-7.57-11.33-11.36-.3-.3-.46-.32-.76,0q-3.49,3.53-7,7c-.29.29-.33.45,0,.76,1.64,1.61,3.24,3.25,4.88,4.85.34.33.3.5,0,.8q-1.16,1.1-2.26,2.26c-.31.33-.49.38-.84,0-1.6-1.65-3.24-3.25-4.85-4.89-.29-.3-.44-.27-.72,0q-3.43,3.47-6.89,6.91c-.51.51-.51.51,0,1q5.6,5.6,11.2,11.19c.31.31.41.49,0,.84-.76.69-1.49,1.43-2.19,2.18-.37.4-.58.44-1,0-3.74-3.78-7.51-7.52-11.25-11.29-.29-.29-.45-.32-.76,0q-2.72,2.76-5.48,5.48c-.33.32-.31.49,0,.8q5.86,5.83,11.7,11.68L70,159.83Z" transform="translate(-1 -1.55)"/><path class="cls-1" d="M118.12,57.87,113.8,62.2c0-.25,0-.51,0-.76q0-27.41,0-54.81c0-.73,0-.74-.72-.74H6c-.69,0-.69,0-.69.7q0,66.52,0,133c0,.71,0,.71.69.71H44.32l4.32,4.33-.54,0q-23.23,0-46.46,0c-.53,0-.64-.13-.64-.65Q1,73.12,1,2.19c0-.53.13-.64.65-.64q57.92,0,115.84,0c.53,0,.64.14.64.65q0,27.48,0,55C118.12,57.4,118.12,57.64,118.12,57.87Z" transform="translate(-1 -1.55)"/><path class="cls-1" d="M113.77,123.07l4.33-4.32c0,.16,0,.32,0,.49q0,12.44,0,24.88c0,.48-.11.59-.59.59q-12.44,0-24.88,0l-.49,0,4.32-4.33,16.8,0c.38,0,.49-.11.49-.49Q113.77,131.47,113.77,123.07Z" transform="translate(-1 -1.55)"/><rect class="cls-1" x="29.92" y="30.19" width="16.12" height="16.12"/><rect class="cls-1" x="50.67" y="30.19" width="16.12" height="16.12"/><rect class="cls-1" x="71.08" y="30.19" width="16.12" height="16.12"/><rect class="cls-1" x="29.92" y="50.36" width="16.12" height="16.12"/><rect class="cls-1" x="50.67" y="50.36" width="16.12" height="16.12"/><rect class="cls-1" x="71.08" y="50.36" width="16.12" height="16.12"/><rect class="cls-1" x="50.67" y="70.39" width="16.12" height="16.12"/><rect class="cls-1" x="29.92" y="70.39" width="16.12" height="16.12"/><rect class="cls-1" x="29.92" y="90.6" width="16.12" height="16.12"/></svg>